<svg data-v-fde0c5aa="" xmlns="http://www.w3.org/2000/svg" viewBox="0 0 300 300" class="iconLeftSlogan"><!----><defs data-v-fde0c5aa=""><!----></defs><rect data-v-fde0c5aa="" fill="transparent" x="0" y="0" width="300px" height="300px" class="logo-background-square"></rect><defs data-v-fde0c5aa=""><!----></defs><g data-v-fde0c5aa="" id="d1bbfb81-f16c-4e38-813e-bea5f33519ed" fill="#000000" transform="matrix(2.7005840203061897,0,0,2.7005840203061897,154.81225292416948,126.79165618747082)"><path d="M6.79 9.60L6.79 9.60L6.79 9.60Q6.96 9.60 7.20 9.58L7.20 9.58L7.20 9.58Q7.45 9.56 7.67 9.52L7.67 9.52L7.67 9.52Q7.90 9.48 8.07 9.43L8.07 9.43L8.07 9.43Q8.25 9.38 8.29 9.31L8.29 9.31L8.29 9.31Q8.25 9.17 8.13 8.95L8.13 8.95L8.13 8.95Q8.01 8.74 7.86 8.48L7.86 8.48L7.86 8.48Q7.71 8.23 7.55 7.97L7.55 7.97L7.55 7.97Q7.38 7.70 7.22 7.45L7.22 7.45L7.22 7.45Q7.22 7.42 7.21 7.41L7.21 7.41L7.21 7.41Q7.20 7.39 7.18 7.36L7.18 7.36L7.18 7.36Q7.08 7.21 6.94 6.93L6.94 6.93L6.94 6.93Q6.80 6.65 6.66 6.36L6.66 6.36L6.66 6.36Q6.51 6.08 6.36 5.82L6.36 5.82L6.36 5.82Q6.22 5.56 6.12 5.45L6.12 5.45L6.12 5.45Q6.55 5.29 6.96 5.11L6.96 5.11L6.96 5.11Q7.36 4.93 7.71 4.70L7.71 4.70L7.71 4.70Q8.05 4.47 8.31 4.16L8.31 4.16L8.31 4.16Q8.57 3.85 8.71 3.44L8.71 3.44L8.71 3.44Q8.72 3.40 8.75 3.30L8.75 3.30L8.75 3.30Q8.78 3.21 8.81 3.11L8.81 3.11L8.81 3.11Q8.85 3.01 8.87 2.93L8.87 2.93L8.87 2.93Q8.89 2.84 8.89 2.80L8.89 2.80L8.89 2.80Q8.90 2.74 8.90 2.70L8.90 2.70L8.90 2.70Q8.89 2.66 8.89 2.60L8.89 2.60L8.89 2.60Q8.93 2.11 8.79 1.69L8.79 1.69L8.79 1.69Q8.64 1.27 8.37 0.92L8.37 0.92L8.37 0.92Q8.12 0.59 7.77 0.33L7.77 0.33L7.77 0.33Q7.42 0.07 6.94 0.01L6.94 0.01L6.94 0.01Q6.66-0.01 6.32-0.04L6.32-0.04L6.32-0.04Q5.98-0.07 5.67-0.08L5.67-0.08L5.67-0.08Q5.47-0.10 5.26-0.08L5.26-0.08L5.26-0.08Q5.05-0.06 4.86-0.06L4.86-0.06L4.86-0.06Q4.66-0.06 4.43-0.01L4.43-0.01L4.43-0.01Q4.20 0.04 4.00 0.04L4.00 0.04L4.00 0.04Q3.84 0.04 3.75 0.06L3.75 0.06L3.75 0.06Q3.67 0.07 3.51 0.14L3.51 0.14L3.51 0.14Q3.40 0.18 3.30 0.39L3.30 0.39L3.30 0.39Q3.21 0.59 3.11 0.88L3.11 0.88L3.11 0.88Q3.01 1.16 2.93 1.48L2.93 1.48L2.93 1.48Q2.86 1.81 2.81 2.07L2.81 2.07L2.81 2.07Q2.76 2.32 2.74 2.47L2.74 2.47L2.74 2.47Q2.72 2.62 2.73 2.56L2.73 2.56L2.23 4.96L2.23 4.96Q2.10 5.53 1.96 6.18L1.96 6.18L1.96 6.18Q1.82 6.83 1.69 7.46L1.69 7.46L1.69 7.46Q1.57 8.09 1.46 8.67L1.46 8.67L1.46 8.67Q1.34 9.24 1.29 9.65L1.29 9.65L1.29 9.65Q1.37 9.73 1.58 9.79L1.58 9.79L1.58 9.79Q1.79 9.84 2.03 9.84L2.03 9.84L2.03 9.84Q2.27 9.84 2.47 9.79L2.47 9.79L2.47 9.79Q2.67 9.73 2.73 9.60L2.73 9.60L2.73 9.60Q2.74 9.59 2.77 9.50L2.77 9.50L2.77 9.50Q2.80 9.41 2.82 9.30L2.82 9.30L2.82 9.30Q2.84 9.20 2.86 9.10L2.86 9.10L2.86 9.10Q2.87 9.00 2.87 8.97L2.87 8.97L2.87 8.97Q2.87 8.90 2.91 8.65L2.91 8.65L2.91 8.65Q2.95 8.40 3.02 8.05L3.02 8.05L3.02 8.05Q3.08 7.70 3.15 7.32L3.15 7.32L3.15 7.32Q3.22 6.93 3.29 6.60L3.29 6.60L3.29 6.60Q3.36 6.27 3.40 6.06L3.40 6.06L3.40 6.06Q3.44 5.85 3.46 5.85L3.46 5.85L3.46 5.85Q3.57 5.84 3.78 5.85L3.78 5.85L3.78 5.85Q3.99 5.85 4.30 5.82L4.30 5.82L4.30 5.82Q4.44 5.94 4.60 6.19L4.60 6.19L4.60 6.19Q4.76 6.44 4.94 6.76L4.94 6.76L4.94 6.76Q5.12 7.07 5.31 7.40L5.31 7.40L5.31 7.40Q5.49 7.73 5.66 7.98L5.66 7.98L5.66 7.98Q5.82 8.23 5.96 8.44L5.96 8.44L5.96 8.44Q6.09 8.64 6.22 8.83L6.22 8.83L6.22 8.83Q6.34 9.02 6.48 9.20L6.48 9.20L6.48 9.20Q6.62 9.38 6.79 9.60ZM5.29 1.23L5.31 1.22L5.31 1.22Q5.50 1.20 5.58 1.22L5.58 1.22L5.58 1.22Q5.66 1.23 5.85 1.23L5.85 1.23L5.85 1.23Q6.48 1.23 6.90 1.50L6.90 1.50L6.90 1.50Q7.31 1.76 7.48 2.16L7.48 2.16L7.48 2.16Q7.64 2.55 7.54 3.00L7.54 3.00L7.54 3.00Q7.43 3.44 7.01 3.81L7.01 3.81L7.01 3.81Q6.48 4.28 5.61 4.49L5.61 4.49L5.61 4.49Q4.75 4.69 3.70 4.56L3.70 4.56L3.70 4.56Q3.70 4.48 3.72 4.37L3.72 4.37L3.72 4.37Q3.74 4.26 3.77 4.14L3.77 4.14L3.77 4.14Q3.79 4.03 3.81 3.94L3.81 3.94L3.81 3.94Q3.84 3.85 3.84 3.81L3.84 3.81L3.84 3.81Q3.86 3.67 3.87 3.63L3.87 3.63L3.87 3.63Q3.88 3.60 3.88 3.60L3.88 3.60L3.88 3.60Q3.88 3.60 3.89 3.57L3.89 3.57L3.89 3.57Q3.89 3.54 3.92 3.39L3.92 3.39L3.92 3.39Q4.03 2.91 4.12 2.36L4.12 2.36L4.12 2.36Q4.21 1.81 4.47 1.36L4.47 1.36L4.47 1.36Q4.68 1.30 4.89 1.27L4.89 1.27L4.89 1.27Q5.10 1.23 5.29 1.23L5.29 1.23ZM13.83 8.95L13.83 8.95L13.83 8.95Q13.92 8.89 14.06 8.79L14.06 8.79L14.06 8.79Q14.20 8.68 14.24 8.60L14.24 8.60L14.24 8.60Q14.22 8.57 14.17 8.42L14.17 8.42L14.17 8.42Q14.11 8.27 14.04 8.11L14.04 8.11L14.04 8.11Q13.97 7.95 13.90 7.83L13.90 7.83L13.90 7.83Q13.83 7.70 13.79 7.71L13.79 7.71L13.79 7.71Q13.41 8.04 13.16 8.23L13.16 8.23L13.16 8.23Q12.91 8.41 12.70 8.52L12.70 8.52L12.70 8.52Q12.49 8.62 12.31 8.67L12.31 8.67L12.31 8.67Q12.12 8.71 11.90 8.74L11.90 8.74L11.90 8.74Q11.62 8.74 11.30 8.69L11.30 8.69L11.30 8.69Q10.98 8.64 10.70 8.51L10.70 8.51L10.70 8.51Q10.43 8.39 10.25 8.16L10.25 8.16L10.25 8.16Q10.08 7.94 10.11 7.57L10.11 7.57L10.11 7.57Q10.11 7.41 10.18 7.27L10.18 7.27L10.28 7.21L10.28 7.21Q10.84 7.20 11.39 7.18L11.39 7.18L11.39 7.18Q11.94 7.15 12.53 7.10L12.53 7.10L12.53 7.10Q12.63 7.08 12.87 7.06L12.87 7.06L12.87 7.06Q13.12 7.04 13.38 7.00L13.38 7.00L13.38 7.00Q13.64 6.96 13.86 6.88L13.86 6.88L13.86 6.88Q14.08 6.80 14.15 6.69L14.15 6.69L14.15 6.69Q14.22 6.55 14.29 6.41L14.29 6.41L14.29 6.41Q14.36 6.27 14.43 6.12L14.43 6.12L14.43 6.12Q14.50 5.98 14.52 5.81L14.52 5.81L14.52 5.81Q14.53 5.64 14.56 5.50L14.56 5.50L14.56 5.50Q14.64 4.96 14.45 4.49L14.45 4.49L14.45 4.49Q14.21 3.92 13.70 3.70L13.70 3.70L13.70 3.70Q13.19 3.49 12.58 3.55L12.58 3.55L12.58 3.55Q11.97 3.61 11.33 3.93L11.33 3.93L11.33 3.93Q10.70 4.24 10.22 4.72L10.22 4.72L10.22 4.72Q9.73 5.19 9.41 5.74L9.41 5.74L9.41 5.74Q9.09 6.29 8.96 6.90L8.96 6.90L8.96 6.90Q8.72 8.04 9.06 8.72L9.06 8.72L9.06 8.72Q9.39 9.41 10.07 9.68L10.07 9.68L10.07 9.68Q10.75 9.95 11.65 9.84L11.65 9.84L11.65 9.84Q12.54 9.72 13.43 9.24L13.43 9.24L13.43 9.24Q13.50 9.20 13.63 9.10L13.63 9.10L13.63 9.10Q13.76 9.00 13.83 8.95ZM13.34 6.12L13.34 6.12L13.34 6.12Q13.30 6.13 13.08 6.15L13.08 6.15L13.08 6.15Q12.87 6.17 12.56 6.19L12.56 6.19L12.56 6.19Q12.26 6.20 11.93 6.22L11.93 6.22L11.93 6.22Q11.59 6.24 11.30 6.26L11.30 6.26L11.30 6.26Q11.00 6.27 10.80 6.28L10.80 6.28L10.80 6.28Q10.60 6.29 10.58 6.27L10.58 6.27L10.58 6.27Q10.47 6.24 10.43 6.16L10.43 6.16L10.43 6.16Q10.60 5.61 11.04 5.21L11.04 5.21L11.04 5.21Q11.48 4.80 11.97 4.61L11.97 4.61L11.97 4.61Q12.46 4.42 12.89 4.51L12.89 4.51L12.89 4.51Q13.33 4.59 13.50 5.04L13.50 5.04L13.50 5.04Q13.57 5.19 13.57 5.45L13.57 5.45L13.57 5.45Q13.57 5.68 13.50 5.87L13.50 5.87L13.50 5.87Q13.48 5.94 13.45 6.01L13.45 6.01L13.45 6.01Q13.41 6.08 13.34 6.12ZM19.92 7.81L19.92 7.81L19.92 7.81Q19.89 7.46 19.90 6.99L19.90 6.99L19.90 6.99Q19.91 6.51 19.92 6.01L19.92 6.01L19.92 6.01Q19.94 5.50 19.94 5.04L19.94 5.04L19.94 5.04Q19.94 4.56 19.91 4.23L19.91 4.23L19.91 4.23Q19.60 4.19 19.38 4.22L19.38 4.22L19.38 4.22Q19.17 4.26 18.84 4.37L18.84 4.37L18.84 4.37Q18.56 4.79 18.25 5.35L18.25 5.35L18.25 5.35Q17.93 5.91 17.64 6.43L17.64 6.43L17.64 6.43Q17.35 6.96 17.13 7.37L17.13 7.37L17.13 7.37Q16.91 7.78 16.84 7.91L16.84 7.91L16.84 7.91Q16.69 7.25 16.70 6.53L16.70 6.53L16.70 6.53Q16.70 5.81 16.65 5.12L16.65 5.12L16.65 5.12Q16.63 5.00 16.63 4.82L16.63 4.82L16.63 4.82Q16.63 4.63 16.63 4.44L16.63 4.44L16.63 4.44Q16.63 4.24 16.63 4.06L16.63 4.06L16.63 4.06Q16.63 3.88 16.62 3.75L16.62 3.75L16.62 3.75Q16.49 3.75 16.39 3.74L16.39 3.74L16.39 3.74Q16.30 3.72 16.18 3.75L16.18 3.75L16.18 3.75Q16.07 3.78 15.93 3.86L15.93 3.86L15.93 3.86Q15.79 3.95 15.60 4.13L15.60 4.13L15.60 4.13Q15.62 4.28 15.60 4.42L15.60 4.42L15.60 4.42Q15.58 4.55 15.58 4.70L15.58 4.70L15.58 4.70Q15.57 5.28 15.58 5.84L15.58 5.84L15.58 5.84Q15.58 6.40 15.62 6.96L15.62 6.96L15.62 6.96Q15.64 7.15 15.67 7.44L15.67 7.44L15.67 7.44Q15.69 7.73 15.72 8.02L15.72 8.02L15.72 8.02Q15.75 8.32 15.79 8.60L15.79 8.60L15.79 8.60Q15.83 8.88 15.88 9.07L15.88 9.07L15.88 9.07Q15.89 9.14 15.93 9.32L15.93 9.32L15.93 9.32Q15.96 9.51 15.97 9.58L15.97 9.58L15.97 9.58Q16.04 9.56 16.18 9.57L16.18 9.57L16.18 9.57Q16.31 9.58 16.46 9.58L16.46 9.58L16.46 9.58Q16.60 9.59 16.73 9.59L16.73 9.59L16.73 9.59Q16.87 9.59 16.95 9.58L16.95 9.58L16.95 9.58Q17.04 9.45 17.13 9.28L17.13 9.28L17.13 9.28Q17.22 9.10 17.32 8.90L17.32 8.90L17.32 8.90Q17.43 8.71 17.52 8.53L17.52 8.53L17.52 8.53Q17.61 8.34 17.70 8.22L17.70 8.22L17.70 8.22Q17.81 8.02 17.96 7.73L17.96 7.73L17.96 7.73Q18.12 7.43 18.28 7.13L18.28 7.13L18.28 7.13Q18.44 6.83 18.59 6.56L18.59 6.56L18.59 6.56Q18.73 6.29 18.83 6.12L18.83 6.12L18.84 6.31L18.84 6.31Q18.86 6.52 18.86 6.89L18.86 6.89L18.86 6.89Q18.86 7.25 18.85 7.64L18.85 7.64L18.85 7.64Q18.84 8.04 18.85 8.40L18.85 8.40L18.85 8.40Q18.86 8.76 18.90 8.95L18.90 8.95L18.90 8.95Q18.93 9.02 18.96 9.21L18.96 9.21L18.96 9.21Q19.00 9.39 19.01 9.46L19.01 9.46L19.01 9.46Q19.08 9.45 19.21 9.45L19.21 9.45L19.21 9.45Q19.35 9.45 19.50 9.46L19.50 9.46L19.50 9.46Q19.64 9.48 19.77 9.48L19.77 9.48L19.77 9.48Q19.91 9.48 19.99 9.46L19.99 9.46L19.99 9.46Q20.08 9.34 20.20 9.14L20.20 9.14L20.20 9.14Q20.33 8.95 20.47 8.73L20.47 8.73L20.47 8.73Q20.61 8.51 20.73 8.32L20.73 8.32L20.73 8.32Q20.86 8.12 20.93 7.99L20.93 7.99L20.93 7.99Q21.08 7.71 21.20 7.51L21.20 7.51L21.20 7.51Q21.32 7.31 21.44 7.12L21.44 7.12L21.44 7.12Q21.56 6.93 21.69 6.73L21.69 6.73L21.69 6.73Q21.81 6.52 21.98 6.26L21.98 6.26L21.98 6.26Q22.30 5.73 22.68 5.19L22.68 5.19L22.68 5.19Q23.06 4.65 23.39 4.14L23.39 4.14L23.39 4.14Q23.49 4.00 23.53 3.96L23.53 3.96L23.53 3.96Q23.58 3.91 23.66 3.74L23.66 3.74L23.66 3.74Q23.55 3.57 23.32 3.45L23.32 3.45L23.32 3.45Q23.09 3.33 22.89 3.40L22.89 3.40L22.89 3.40Q22.82 3.46 22.60 3.76L22.60 3.76L22.60 3.76Q22.39 4.06 22.09 4.49L22.09 4.49L22.09 4.49Q21.78 4.93 21.44 5.45L21.44 5.45L21.44 5.45Q21.10 5.96 20.79 6.43L20.79 6.43L20.79 6.43Q20.48 6.90 20.24 7.28L20.24 7.28L20.24 7.28Q20.01 7.66 19.92 7.81ZM25.83 1.68L25.83 1.68L25.83 1.68Q25.72 1.62 25.60 1.58L25.60 1.58L25.60 1.58Q25.48 1.53 25.26 1.61L25.26 1.61L25.26 1.61Q24.86 1.76 24.67 2.05L24.67 2.05L24.67 2.05Q24.47 2.34 24.46 2.61L24.46 2.61L24.46 2.61Q24.46 2.88 24.65 3.07L24.65 3.07L24.65 3.07Q24.85 3.26 25.23 3.21L25.23 3.21L25.23 3.21Q25.49 3.16 25.71 2.98L25.71 2.98L25.71 2.98Q25.93 2.79 26.03 2.54L26.03 2.54L26.03 2.54Q26.14 2.30 26.10 2.06L26.10 2.06L26.10 2.06Q26.07 1.82 25.83 1.68ZM24.18 4.97L24.18 4.97L24.18 4.97Q24.15 5.08 24.07 5.42L24.07 5.42L24.07 5.42Q24.00 5.75 23.89 6.21L23.89 6.21L23.89 6.21Q23.79 6.66 23.67 7.18L23.67 7.18L23.67 7.18Q23.55 7.69 23.44 8.15L23.44 8.15L23.44 8.15Q23.34 8.61 23.25 8.95L23.25 8.95L23.25 8.95Q23.17 9.30 23.14 9.42L23.14 9.42L23.14 9.42Q23.20 9.42 23.39 9.44L23.39 9.44L23.39 9.44Q23.59 9.46 23.80 9.46L23.80 9.46L23.80 9.46Q24.01 9.45 24.19 9.40L24.19 9.40L24.19 9.40Q24.37 9.35 24.42 9.23L24.42 9.23L24.42 9.23Q24.46 9.10 24.56 8.73L24.56 8.73L24.56 8.73Q24.65 8.36 24.77 7.86L24.77 7.86L24.77 7.86Q24.89 7.36 25.02 6.81L25.02 6.81L25.02 6.81Q25.14 6.26 25.24 5.77L25.24 5.77L25.24 5.77Q25.34 5.28 25.40 4.91L25.40 4.91L25.40 4.91Q25.47 4.54 25.47 4.41L25.47 4.41L25.47 4.41Q25.35 4.40 25.23 4.35L25.23 4.35L25.23 4.35Q25.10 4.31 24.96 4.30L24.96 4.30L24.96 4.30Q24.88 4.27 24.66 4.30L24.66 4.30L24.66 4.30Q24.44 4.33 24.36 4.33L24.36 4.33L24.36 4.33Q24.33 4.41 24.27 4.63L24.27 4.63L24.27 4.63Q24.21 4.84 24.18 4.97ZM30.44 9.41L30.44 9.41L30.44 9.41Q30.53 9.28 30.63 9.06L30.63 9.06L30.63 9.06Q30.72 8.83 30.79 8.60L30.79 8.60L30.79 8.60Q30.87 8.36 30.93 8.13L30.93 8.13L30.93 8.13Q31.00 7.90 31.02 7.76L31.02 7.76L31.02 7.76Q31.18 7.04 31.32 6.33L31.32 6.33L31.32 6.33Q31.46 5.61 31.32 4.94L31.32 4.94L31.32 4.94Q31.19 4.27 30.81 4.03L30.81 4.03L30.81 4.03Q30.42 3.79 29.92 3.86L29.92 3.86L29.92 3.86Q29.43 3.92 28.88 4.22L28.88 4.22L28.88 4.22Q28.34 4.52 27.89 4.93L27.89 4.93L27.89 4.93Q27.99 4.47 27.94 4.03L27.94 4.03L27.94 4.03Q27.87 4.03 27.77 4.00L27.77 4.00L27.77 4.00Q27.66 3.98 27.58 4.03L27.58 4.03L27.58 4.03Q27.54 4.05 27.47 4.05L27.47 4.05L27.47 4.05Q27.40 4.05 27.31 4.05L27.31 4.05L27.31 4.05Q27.23 4.06 27.16 4.07L27.16 4.07L27.16 4.07Q27.09 4.09 27.06 4.12L27.06 4.12L27.06 4.12Q27.01 4.16 26.91 4.52L26.91 4.52L26.91 4.52Q26.81 4.89 26.68 5.43L26.68 5.43L26.68 5.43Q26.56 5.96 26.43 6.59L26.43 6.59L26.43 6.59Q26.31 7.21 26.19 7.77L26.19 7.77L26.19 7.77Q26.07 8.33 25.99 8.74L25.99 8.74L25.99 8.74Q25.91 9.16 25.89 9.27L25.89 9.27L25.89 9.27Q25.91 9.39 26.04 9.44L26.04 9.44L26.04 9.44Q26.17 9.49 26.33 9.49L26.33 9.49L26.33 9.49Q26.50 9.49 26.67 9.48L26.67 9.48L26.67 9.48Q26.84 9.46 26.95 9.46L26.95 9.46L26.95 9.46Q26.95 9.46 26.97 9.35L26.97 9.35L26.97 9.35Q26.99 9.23 27.02 9.13L27.02 9.13L27.02 9.13Q27.17 8.41 27.35 7.69L27.35 7.69L27.35 7.69Q27.52 6.96 27.85 6.24L27.85 6.24L27.85 6.24Q27.94 6.01 28.16 5.78L28.16 5.78L28.16 5.78Q28.38 5.54 28.63 5.38L28.63 5.38L28.63 5.38Q28.88 5.22 29.15 5.15L29.15 5.15L29.15 5.15Q29.41 5.08 29.63 5.16L29.63 5.16L29.63 5.16Q29.85 5.24 29.97 5.48L29.97 5.48L29.97 5.48Q30.10 5.73 30.07 6.19L30.07 6.19L30.07 6.19Q30.03 6.79 29.88 7.41L29.88 7.41L29.88 7.41Q29.74 7.91 29.60 8.41L29.60 8.41L29.60 8.41Q29.47 8.92 29.36 9.41L29.36 9.41L29.36 9.41Q29.50 9.49 29.67 9.52L29.67 9.52L29.67 9.52Q29.83 9.55 30.04 9.48L30.04 9.48L30.04 9.48Q30.14 9.45 30.24 9.44L30.24 9.44L30.24 9.44Q30.34 9.42 30.44 9.41ZM37.02 9.20L37.02 9.20L37.02 9.20Q37.20 8.69 37.34 8.15L37.34 8.15L37.34 8.15Q37.48 7.60 37.58 7.04L37.58 7.04L37.58 7.04Q37.69 6.47 37.79 5.92L37.79 5.92L37.79 5.92Q37.88 5.36 38.00 4.83L38.00 4.83L38.00 4.83Q38.04 4.61 38.13 4.23L38.13 4.23L38.13 4.23Q38.22 3.85 38.33 3.40L38.33 3.40L38.33 3.40Q38.43 2.94 38.54 2.44L38.54 2.44L38.54 2.44Q38.65 1.95 38.74 1.51L38.74 1.51L38.74 1.51Q38.84 1.08 38.89 0.74L38.89 0.74L38.89 0.74Q38.95 0.39 38.95 0.22L38.95 0.22L38.95 0.22Q38.95 0.22 38.84 0.21L38.84 0.21L38.84 0.21Q38.72 0.20 38.50 0.21L38.50 0.21L37.94 0.22L37.94 0.22Q37.93 0.38 37.89 0.51L37.89 0.51L37.89 0.51Q37.86 0.64 37.80 0.80L37.80 0.80L37.80 0.80Q37.65 1.25 37.54 1.73L37.54 1.73L37.54 1.73Q37.44 2.21 37.32 2.67L37.32 2.67L37.32 2.67Q37.24 3.00 37.20 3.33L37.20 3.33L37.20 3.33Q37.16 3.65 37.02 3.98L37.02 3.98L37.02 3.98Q36.83 3.91 36.74 3.87L36.74 3.87L36.74 3.87Q36.64 3.84 36.46 3.79L36.46 3.79L36.46 3.79Q36.37 3.77 36.23 3.77L36.23 3.77L36.23 3.77Q36.11 3.77 36.01 3.77L36.01 3.77L36.01 3.77Q35.38 3.77 34.78 4.03L34.78 4.03L34.78 4.03Q34.19 4.28 33.66 4.70L33.66 4.70L33.66 4.70Q33.22 5.05 32.89 5.49L32.89 5.49L32.89 5.49Q32.56 5.92 32.36 6.38L32.36 6.38L32.36 6.38Q32.16 6.85 32.10 7.31L32.10 7.31L32.10 7.31Q32.05 7.77 32.16 8.16L32.16 8.16L32.16 8.16Q32.27 8.55 32.56 8.86L32.56 8.86L32.56 8.86Q32.84 9.16 33.35 9.28L33.35 9.28L33.35 9.28Q33.57 9.34 33.80 9.37L33.80 9.37L33.80 9.37Q34.03 9.39 34.29 9.32L34.29 9.32L34.29 9.32Q34.34 9.31 34.45 9.29L34.45 9.29L34.45 9.29Q34.55 9.27 34.67 9.24L34.67 9.24L34.67 9.24Q34.79 9.21 34.89 9.19L34.89 9.19L34.89 9.19Q35 9.17 35.06 9.14L35.06 9.14L35.06 9.14Q35.21 9.09 35.32 9.04L35.32 9.04L35.32 9.04Q35.43 8.99 35.54 8.93L35.54 8.93L35.54 8.93Q35.64 8.88 35.75 8.81L35.75 8.81L35.75 8.81Q35.85 8.74 36.01 8.64L36.01 8.64L36.01 8.64Q35.98 8.92 35.95 9.09L35.95 9.09L35.95 9.09Q35.91 9.27 35.95 9.35L35.95 9.35L35.95 9.35Q35.99 9.42 36.15 9.41L36.15 9.41L36.15 9.41Q36.30 9.39 36.65 9.31L36.65 9.31L36.65 9.31Q36.72 9.28 36.83 9.26L36.83 9.26L36.83 9.26Q36.93 9.24 37.02 9.20ZM36.69 5.07L36.69 5.07L36.69 5.07Q36.71 5.29 36.66 5.61L36.66 5.61L36.66 5.61Q36.61 5.94 36.53 6.28L36.53 6.28L36.53 6.28Q36.44 6.62 36.35 6.93L36.35 6.93L36.35 6.93Q36.26 7.24 36.18 7.42L36.18 7.42L36.18 7.42Q36.08 7.63 35.77 7.77L35.77 7.77L35.77 7.77Q35.46 7.91 35.10 7.98L35.10 7.98L35.10 7.98Q34.75 8.05 34.43 8.06L34.43 8.06L34.43 8.06Q34.10 8.08 33.98 8.05L33.98 8.05L33.98 8.05Q33.60 7.98 33.43 7.64L33.43 7.64L33.43 7.64Q33.26 7.29 33.42 6.80L33.42 6.80L33.42 6.80Q33.53 6.40 33.80 6.06L33.80 6.06L33.80 6.06Q34.06 5.71 34.41 5.46L34.41 5.46L34.41 5.46Q34.76 5.21 35.17 5.07L35.17 5.07L35.17 5.07Q35.57 4.93 35.97 4.90L35.97 4.90L35.97 4.90Q36.18 4.89 36.36 4.91L36.36 4.91L36.36 4.91Q36.54 4.94 36.69 5.07Z"></path></g><defs data-v-fde0c5aa=""><linearGradient data-v-fde0c5aa="" gradientTransform="rotate(25)" id="34841c8d-022a-4520-906c-7d2a55fa8f59" x1="0%" y1="0%" x2="100%" y2="0%"><stop data-v-fde0c5aa="" offset="0%" stop-color="#E0302F" stop-opacity="1"></stop><stop data-v-fde0c5aa="" offset="100%" stop-color="#3281DD" stop-opacity="1"></stop></linearGradient></defs><g data-v-fde0c5aa="" id="64fb4568-5f5c-4d8b-9807-3b5cea057deb" stroke="none" fill="url(#34841c8d-022a-4520-906c-7d2a55fa8f59)" transform="matrix(3.3966453615272694,0,0,3.3966453615272694,-41.51948867665446,9.039217496618335)"><path d="M39 42l16 8V33z"></path><path d="M24 42l16 8V33z"></path></g><defs data-v-fde0c5aa=""><!----></defs><g data-v-fde0c5aa="" id="025e8174-f8c1-4daf-9fe0-4da4fbbfb737" fill="#000000" transform="matrix(0.38381760727567554,0,0,0.38381760727567554,158.20005180552644,162.3383252863116)"><path d="M0.25 5.01C0.25 5.17 0.43 5.17 0.56 5.17C0.71 5.17 0.76 5.15 0.77 4.97L0.88 3.89C0.90 3.81 1.44 3.75 2.20 3.75L4.19 3.75C4.24 3.75 4.27 4.35 4.27 4.97C4.27 6.43 4.21 12.18 4.09 12.18L3.22 12.18C3.00 12.18 2.95 12.19 2.95 12.39C2.95 12.63 2.97 12.68 3.16 12.68C3.49 12.68 4.47 12.64 4.89 12.64C5.31 12.64 6.24 12.68 6.57 12.68C6.73 12.68 6.76 12.61 6.76 12.40C6.76 12.24 6.73 12.18 6.57 12.18L5.57 12.18C5.54 12.18 5.54 11.76 5.54 11.31C5.54 9.56 5.63 5.96 5.63 5.92C5.64 5.18 5.64 3.75 5.74 3.75L7.35 3.75C8.06 3.75 8.89 3.78 8.89 3.85C8.89 3.99 8.85 4.90 8.85 4.97C8.85 5.12 8.92 5.17 9.10 5.17C9.30 5.17 9.37 5.17 9.37 5.03C9.37 3.93 9.42 3.40 9.42 3.14C9.42 2.94 9.34 2.94 9.14 2.94C8.99 2.94 8.93 2.98 8.92 3.16C8.92 3.23 8.27 3.28 7.43 3.28L2.44 3.28C1.78 3.28 0.97 3.28 0.97 3.21L0.97 3.07C0.97 2.94 0.84 2.94 0.74 2.94C0.52 2.94 0.49 3.00 0.48 3.19C0.42 3.89 0.25 4.97 0.25 5.01ZM17.18 12.39C17.18 12.63 17.18 12.68 17.37 12.68C17.70 12.68 18.63 12.64 19.05 12.64C19.47 12.64 20.30 12.68 20.62 12.68C20.79 12.68 20.79 12.61 20.79 12.40C20.79 12.24 20.79 12.18 20.62 12.18L19.70 12.18C19.61 12.18 19.57 9.93 19.57 8.20C19.57 8.01 19.57 8.01 19.70 8.01L24.93 8.01C25.00 8.01 25.02 8.01 25.02 8.18L25.02 9.91C25.02 11.05 25.00 12.18 24.95 12.18L24.18 12.18C23.95 12.18 23.91 12.19 23.91 12.39C23.91 12.63 23.93 12.68 24.12 12.68C24.44 12.68 25.28 12.64 25.70 12.64C26.12 12.64 26.71 12.68 27.03 12.68C27.20 12.68 27.22 12.61 27.22 12.40C27.22 12.24 27.20 12.18 27.03 12.18L26.29 12.18C26.25 12.18 26.24 9.27 26.24 7.04C26.24 5.40 26.24 3.70 26.28 3.70L26.89 3.70C27.12 3.70 27.16 3.68 27.16 3.49C27.16 3.25 27.15 3.19 26.95 3.19C26.81 3.19 26.18 3.23 25.59 3.23C24.92 3.23 24.32 3.19 24.09 3.19C23.90 3.19 23.87 3.22 23.87 3.44C23.87 3.67 23.94 3.70 24.11 3.70L24.91 3.70C24.96 3.70 25.02 4.79 25.02 5.71L25.02 7.42C25.02 7.59 25.02 7.59 24.85 7.59L19.74 7.59C19.57 7.59 19.57 7.59 19.57 7.38C19.57 6.96 19.56 6.23 19.56 5.53C19.56 4.66 19.57 3.70 19.63 3.70L20.40 3.70C20.62 3.70 20.66 3.68 20.66 3.49C20.66 3.25 20.65 3.19 20.45 3.19C20.13 3.19 19.54 3.23 18.94 3.23C18.35 3.23 17.86 3.19 17.64 3.19C17.46 3.19 17.36 3.21 17.36 3.44C17.36 3.68 17.47 3.70 17.64 3.70L18.26 3.70C18.31 3.70 18.33 5.59 18.33 7.18L18.33 8.61C18.33 10.08 18.31 12.18 18.24 12.18L17.43 12.18C17.21 12.18 17.18 12.19 17.18 12.39ZM35.25 12.39C35.25 12.63 35.28 12.68 35.48 12.68C35.80 12.68 36.76 12.64 37.18 12.64C37.60 12.64 42.11 12.68 42.43 12.68C42.56 12.68 42.71 12.66 42.71 12.49C42.71 12.07 42.76 11.23 42.76 10.53C42.76 10.39 42.60 10.39 42.48 10.39C42.36 10.39 42.24 10.39 42.24 10.51C42.22 11.06 42.22 11.41 42.20 11.76C42.17 12.01 42.17 12.04 42.07 12.04C41.92 12.04 39.28 12.08 37.79 12.08C37.72 12.08 37.67 10.11 37.63 8.26C37.63 8.06 37.67 8.09 37.81 8.09L40.10 8.09C40.80 8.09 40.82 8.20 40.82 8.30L40.82 9.00C40.82 9.14 41.01 9.14 41.12 9.14C41.22 9.14 41.34 9.13 41.34 9.02C41.34 8.83 41.31 8.33 41.31 7.83C41.31 7.32 41.34 6.83 41.34 6.71C41.34 6.59 41.20 6.58 41.10 6.58C40.99 6.58 40.82 6.59 40.82 6.72L40.82 7.45C40.82 7.62 40.38 7.63 40.10 7.63L37.76 7.63C37.65 7.63 37.63 7.63 37.63 7.45C37.62 6.75 37.60 6.06 37.60 5.46C37.60 5.12 37.60 3.71 37.69 3.71C38.92 3.71 41.43 3.75 41.43 3.81C41.43 3.99 41.38 4.83 41.38 4.89C41.38 5.04 41.45 5.10 41.64 5.10C41.83 5.10 41.90 5.08 41.90 4.94C41.90 3.85 41.96 3.36 41.96 3.09C41.96 2.91 41.87 2.90 41.68 2.90C41.48 2.90 41.48 2.95 41.45 3.11C41.44 3.25 41.51 3.25 40.60 3.25C39.98 3.25 37.84 3.29 37.07 3.29C36.58 3.29 35.64 3.25 35.55 3.25C35.42 3.25 35.36 3.30 35.36 3.49C35.36 3.72 35.43 3.74 35.60 3.74L36.26 3.74C36.32 3.74 36.39 4.79 36.39 5.71C36.39 5.80 36.44 8.27 36.44 9.83L36.44 11.17C36.44 11.84 36.41 12.18 36.39 12.18L35.53 12.18C35.31 12.18 35.25 12.21 35.25 12.39ZM50.72 3.51C50.72 3.72 50.79 3.79 50.99 3.79L51.80 3.77C51.90 3.77 51.94 6.61 51.94 8.55L51.94 10.42C51.94 11.30 51.93 12.18 51.88 12.18L51.28 12.18C51.06 12.18 50.99 12.19 50.99 12.39C50.99 12.63 51.03 12.68 51.23 12.68C51.35 12.68 52.18 12.64 52.60 12.64C53.02 12.64 53.79 12.68 54.11 12.68C54.28 12.68 54.31 12.61 54.31 12.40C54.31 12.24 54.28 12.18 54.11 12.18L53.30 12.18C53.23 12.18 53.14 9.18 53.14 8.37C53.14 8.30 53.14 8.26 53.26 8.26C53.65 8.26 54.25 8.27 54.54 8.27C56.78 8.32 56.92 10.00 56.92 11.68L56.92 12.49C56.92 12.61 56.98 12.64 57.08 12.64C57.08 12.64 58.52 12.68 59.00 12.68C59.16 12.68 59.22 12.64 59.22 12.53C59.22 12.24 59.16 12.18 59.01 12.18L58.37 12.18C58.27 12.18 58.24 12.14 58.21 11.31C58.13 8.99 56.76 8.34 55.85 8.05C55.71 8.01 55.73 8.01 55.85 7.95C56.43 7.69 57.75 6.94 57.75 5.63C57.75 3.63 56.06 3.21 54.66 3.21C54.33 3.21 53.05 3.29 52.63 3.29C52.21 3.29 51.23 3.26 51.00 3.26C50.82 3.26 50.72 3.28 50.72 3.51ZM53.14 7.80L53.14 4.40C53.14 4.05 53.17 3.68 53.21 3.68C53.42 3.65 53.70 3.65 53.93 3.65C55.23 3.65 56.48 4.47 56.48 5.82C56.48 6.99 55.93 7.57 55.27 7.88C55.23 7.90 55.19 7.90 55.12 7.90C54.64 7.88 53.93 7.88 53.33 7.87C53.16 7.87 53.14 7.85 53.14 7.80ZM66.70 12.39C66.70 12.63 66.72 12.68 66.92 12.68C67.24 12.68 68.21 12.64 68.63 12.64C69.05 12.64 73.56 12.68 73.88 12.68C74.00 12.68 74.16 12.66 74.16 12.49C74.16 12.07 74.20 11.23 74.20 10.53C74.20 10.39 74.05 10.39 73.92 10.39C73.81 10.39 73.68 10.39 73.68 10.51C73.67 11.06 73.67 11.41 73.64 11.76C73.61 12.01 73.61 12.04 73.51 12.04C73.36 12.04 70.73 12.08 69.23 12.08C69.16 12.08 69.12 10.11 69.08 8.26C69.08 8.06 69.12 8.09 69.26 8.09L71.54 8.09C72.24 8.09 72.27 8.20 72.27 8.30L72.27 9.00C72.27 9.14 72.45 9.14 72.56 9.14C72.66 9.14 72.79 9.13 72.79 9.02C72.79 8.83 72.76 8.33 72.76 7.83C72.76 7.32 72.79 6.83 72.79 6.71C72.79 6.59 72.65 6.58 72.55 6.58C72.44 6.58 72.27 6.59 72.27 6.72L72.27 7.45C72.27 7.62 71.82 7.63 71.54 7.63L69.20 7.63C69.09 7.63 69.08 7.63 69.08 7.45C69.06 6.75 69.05 6.06 69.05 5.46C69.05 5.12 69.05 3.71 69.13 3.71C70.36 3.71 72.87 3.75 72.87 3.81C72.87 3.99 72.83 4.83 72.83 4.89C72.83 5.04 72.90 5.10 73.08 5.10C73.28 5.10 73.35 5.08 73.35 4.94C73.35 3.85 73.40 3.36 73.40 3.09C73.40 2.91 73.32 2.90 73.12 2.90C72.93 2.90 72.93 2.95 72.90 3.11C72.88 3.25 72.95 3.25 72.04 3.25C71.43 3.25 69.29 3.29 68.52 3.29C68.03 3.29 67.09 3.25 66.99 3.25C66.86 3.25 66.81 3.30 66.81 3.49C66.81 3.72 66.88 3.74 67.05 3.74L67.70 3.74C67.76 3.74 67.83 4.79 67.83 5.71C67.83 5.80 67.89 8.27 67.89 9.83L67.89 11.17C67.89 11.84 67.86 12.18 67.83 12.18L66.98 12.18C66.75 12.18 66.70 12.21 66.70 12.39ZM91.97 10.43C91.97 11.79 92.96 12.78 94.51 12.78C95.72 12.78 96.74 11.72 97.17 11.24C97.29 11.12 97.30 11.12 97.40 11.26C97.57 11.49 97.89 12.00 98.06 12.61C98.10 12.74 98.14 12.78 98.31 12.78C98.52 12.78 99.02 12.66 99.96 12.64C100.17 12.64 100.18 12.63 100.18 12.39C100.18 12.19 100.18 12.18 100.06 12.18C99.27 12.18 99.23 12.08 99.06 11.80C98.83 11.37 98.46 10.79 98.15 10.42C98.07 10.30 98.03 10.25 98.03 10.22C98.07 10.08 99.09 8.64 99.37 8.23C99.48 8.06 99.55 7.99 99.62 7.99L100.10 7.99C100.30 7.99 100.34 7.98 100.34 7.78C100.34 7.55 100.31 7.49 100.16 7.49C100.02 7.49 99.50 7.53 99.12 7.53C98.41 7.53 97.79 7.49 97.57 7.49C97.44 7.49 97.38 7.53 97.38 7.74C97.38 7.97 97.38 7.99 97.57 7.99L98.45 7.99C98.69 7.99 98.67 8.01 98.67 8.02C98.67 8.30 98.11 9.18 97.82 9.72C97.72 9.90 97.73 9.91 97.57 9.73C96.84 8.95 96.24 8.29 95.38 7.57C95.20 7.42 95.19 7.42 95.40 7.28C95.93 6.92 97.16 5.99 97.16 5.01C97.16 4.03 96.22 3.57 95.21 3.57C93.97 3.57 92.89 4.52 92.89 5.80C92.89 6.45 93.38 7.10 93.69 7.45C93.80 7.57 93.88 7.63 93.88 7.66C93.88 7.69 93.83 7.73 93.72 7.81C93.20 8.18 91.97 9.16 91.97 10.43ZM92.92 9.84C92.92 9.00 93.51 8.48 93.93 8.18C94.11 8.05 94.21 7.98 94.25 7.98C94.30 7.98 94.36 8.04 94.49 8.13C95.28 8.79 96.40 9.90 96.92 10.63C96.98 10.72 97.02 10.77 97.02 10.79C97.02 10.82 96.99 10.85 96.95 10.91C96.67 11.19 95.97 11.83 94.96 11.83C93.93 11.83 92.92 10.93 92.92 9.84ZM93.88 5.35C93.88 4.69 94.25 4.07 95.05 4.07C95.69 4.07 96.12 4.63 96.12 5.24C96.12 6.03 95.54 6.61 95.14 6.90C95.00 7.00 94.93 7.06 94.86 7.06C94.81 7.06 94.72 6.97 94.58 6.82C94.29 6.47 93.88 5.87 93.88 5.35ZM117.96 3.51C117.96 3.75 118.05 3.79 118.22 3.79L119.07 3.77C119.13 3.77 119.18 5.52 119.18 7.11L119.18 11.63C119.18 11.93 119.17 12.18 119.14 12.18L118.41 12.18C118.19 12.18 118.12 12.19 118.12 12.39C118.12 12.63 118.15 12.68 118.34 12.68C118.47 12.68 119.42 12.64 119.84 12.64C120.02 12.64 120.54 12.67 121.18 12.67C122.74 12.67 125.15 12.43 125.15 10.23C125.15 8.27 123.33 7.94 122.64 7.84C122.56 7.83 122.54 7.83 122.54 7.81C122.54 7.80 122.58 7.78 122.65 7.76C123.30 7.52 124.74 6.90 124.74 5.54C124.74 3.81 123.27 3.25 121.59 3.25C121.02 3.25 120.41 3.29 119.87 3.29C119.45 3.29 118.44 3.26 118.22 3.26C118.03 3.26 117.96 3.28 117.96 3.51ZM120.41 8.19C120.41 8.12 120.41 8.08 120.53 8.08L121.00 8.08C121.62 8.08 122.26 8.09 122.64 8.22C123.51 8.51 123.83 9.16 123.83 10.14C123.83 11.17 123.37 12.18 121.35 12.18L120.51 12.18C120.43 12.18 120.41 9.02 120.41 8.19ZM120.41 7.59L120.41 6.92C120.41 5.87 120.43 3.71 120.47 3.68C120.53 3.65 120.83 3.63 121.04 3.63C122.46 3.63 123.48 4.41 123.48 5.77C123.48 6.92 122.75 7.46 122.12 7.66C122.04 7.69 121.94 7.70 121.86 7.70C121.77 7.70 121.63 7.69 121.39 7.69L120.60 7.69C120.41 7.69 120.41 7.67 120.41 7.59ZM132.76 12.39C132.76 12.63 132.76 12.68 132.96 12.68C133.13 12.68 133.45 12.64 134.02 12.64C134.64 12.64 135.18 12.68 135.34 12.68C135.51 12.68 135.51 12.61 135.51 12.40C135.51 12.24 135.51 12.18 135.34 12.18L134.26 12.18C134.26 12.18 134.25 12.18 134.25 12.17C134.26 11.87 135.03 9.90 135.38 9.02C135.45 8.83 135.46 8.79 135.67 8.79L138.50 8.79C138.64 8.79 138.64 8.81 138.71 9.03C138.98 9.77 139.69 11.89 139.69 12.17C139.69 12.18 139.68 12.18 139.68 12.18L138.91 12.18C138.68 12.18 138.67 12.19 138.67 12.39C138.67 12.63 138.68 12.68 138.85 12.68C139.17 12.68 140.04 12.64 140.46 12.64C140.88 12.64 141.55 12.68 141.76 12.68C141.90 12.68 141.92 12.61 141.92 12.40C141.92 12.24 141.90 12.18 141.76 12.18L141.27 12.18C141.18 12.18 140.15 9.34 139.59 7.78L137.91 3.07C137.90 3.00 137.83 2.94 137.75 2.94C137.62 2.94 137.52 3.16 137.44 3.35C137.28 3.71 137.05 3.84 136.93 4.13L135.45 7.57C135.27 8.01 133.56 12.18 133.43 12.18L133.01 12.18C132.79 12.18 132.76 12.19 132.76 12.39ZM135.66 8.33C135.66 8.30 135.69 8.23 135.73 8.13L137.10 4.77C137.14 4.66 137.17 4.61 137.20 4.61C137.21 4.61 137.23 4.63 137.27 4.77L138.43 8.18C138.46 8.25 138.47 8.29 138.47 8.32C138.47 8.36 138.45 8.37 138.35 8.37L135.84 8.37C135.66 8.37 135.66 8.34 135.66 8.33ZM149.46 7.91C149.46 11.31 151.83 12.87 154.42 12.87C156.20 12.87 157.98 11.90 158.02 11.59C158.19 10.29 158.24 9.70 158.24 9.66C158.24 9.56 158.20 9.52 158.03 9.51C157.98 9.51 157.92 9.49 157.88 9.49C157.77 9.49 157.71 9.53 157.68 9.70L157.50 11.33C157.49 11.45 156.38 12.24 154.81 12.24C152.68 12.24 150.98 10.29 150.98 7.94C150.98 5.42 152.40 3.54 154.41 3.54C156.25 3.54 157.60 5.01 157.60 5.17C157.60 5.29 157.54 6.40 157.54 6.45C157.54 6.59 157.58 6.64 157.85 6.64C158.05 6.64 158.12 6.62 158.12 6.44C158.12 5.73 158.17 3.92 158.17 3.67C158.17 3.47 158.06 3.44 157.85 3.44C157.63 3.44 157.60 3.50 157.60 3.67L157.60 4.05C157.60 4.16 157.56 4.16 157.43 4.06C157.15 3.86 156.17 3.04 154.50 3.04C151.66 3.04 149.46 4.96 149.46 7.91ZM166.63 12.39C166.63 12.63 166.64 12.68 166.84 12.68C167.16 12.68 168.06 12.64 168.48 12.64C168.90 12.64 169.85 12.68 170.17 12.68C170.34 12.68 170.35 12.61 170.35 12.40C170.35 12.24 170.32 12.18 170.16 12.18L169.15 12.18C169.05 12.18 169.02 10.12 169.02 8.46C169.02 8.30 169.02 8.30 169.19 8.30L169.46 8.30C169.67 8.30 169.67 8.32 169.74 8.40L172.77 12.00C172.87 12.11 172.94 12.18 172.73 12.18L172.27 12.18C172.09 12.18 172.02 12.19 172.02 12.39C172.02 12.63 172.02 12.68 172.21 12.68C172.54 12.68 173.24 12.64 173.66 12.64C174.08 12.64 174.76 12.68 175.08 12.68C175.25 12.68 175.25 12.61 175.25 12.40C175.25 12.24 175.25 12.18 175.08 12.18L174.86 12.18C174.68 12.18 174.58 12.10 174.45 11.96L170.69 7.62C170.55 7.45 170.52 7.50 170.65 7.36C171.09 6.83 173.63 3.77 173.70 3.77L174.37 3.77C174.59 3.77 174.62 3.75 174.62 3.56C174.62 3.32 174.62 3.26 174.43 3.26C174.23 3.26 173.78 3.30 173.26 3.30C172.73 3.30 172.26 3.26 172.03 3.26C171.85 3.26 171.75 3.28 171.75 3.51C171.75 3.75 171.86 3.77 172.03 3.77L172.59 3.77C172.76 3.77 172.76 3.84 172.65 3.99C172.12 4.66 169.76 7.92 169.47 7.92L169.16 7.92C169.02 7.92 169.02 7.88 169.02 7.69L169.02 5.94C169.02 5.21 169.09 3.77 169.19 3.77L169.96 3.77C170.18 3.77 170.23 3.75 170.23 3.56C170.23 3.32 170.21 3.26 170.02 3.26C169.69 3.26 168.92 3.30 168.50 3.30C167.92 3.30 167.26 3.26 167.03 3.26C166.85 3.26 166.75 3.28 166.75 3.51C166.75 3.75 166.87 3.77 167.03 3.77L167.68 3.77C167.73 3.77 167.76 4.86 167.76 5.78L167.76 9.84C167.76 11.00 167.75 12.18 167.66 12.18L166.92 12.18C166.70 12.18 166.63 12.19 166.63 12.39ZM192.39 12.39C192.39 12.63 192.39 12.68 192.58 12.68C192.75 12.68 193.07 12.64 193.65 12.64C194.26 12.64 194.81 12.68 194.96 12.68C195.13 12.68 195.13 12.61 195.13 12.40C195.13 12.24 195.13 12.18 194.96 12.18L193.89 12.18C193.89 12.18 193.87 12.18 193.87 12.17C193.89 11.87 194.66 9.90 195.01 9.02C195.08 8.83 195.09 8.79 195.30 8.79L198.13 8.79C198.27 8.79 198.27 8.81 198.34 9.03C198.60 9.77 199.32 11.89 199.32 12.17C199.32 12.18 199.30 12.18 199.30 12.18L198.53 12.18C198.31 12.18 198.30 12.19 198.30 12.39C198.30 12.63 198.31 12.68 198.48 12.68C198.80 12.68 199.67 12.64 200.09 12.64C200.51 12.64 201.18 12.68 201.39 12.68C201.53 12.68 201.54 12.61 201.54 12.40C201.54 12.24 201.53 12.18 201.39 12.18L200.90 12.18C200.80 12.18 199.78 9.34 199.22 7.78L197.54 3.07C197.53 3.00 197.46 2.94 197.37 2.94C197.25 2.94 197.15 3.16 197.06 3.35C196.91 3.71 196.67 3.84 196.56 4.13L195.08 7.57C194.89 8.01 193.19 12.18 193.06 12.18L192.64 12.18C192.42 12.18 192.39 12.19 192.39 12.39ZM195.29 8.33C195.29 8.30 195.31 8.23 195.36 8.13L196.73 4.77C196.77 4.66 196.80 4.61 196.83 4.61C196.84 4.61 196.85 4.63 196.90 4.77L198.06 8.18C198.09 8.25 198.10 8.29 198.10 8.32C198.10 8.36 198.07 8.37 197.97 8.37L195.47 8.37C195.29 8.37 195.29 8.34 195.29 8.33ZM209.09 7.91C209.09 11.40 211.46 12.89 214.05 12.89C215.94 12.89 217.94 11.89 217.94 11.58C217.94 11.12 217.95 10.68 217.95 10.33C217.95 9.81 217.97 9.56 218.09 9.56L218.53 9.56C218.67 9.56 218.68 9.39 218.68 9.30C218.68 9.18 218.67 9.06 218.53 9.06C218.30 9.06 217.94 9.10 217.27 9.10C216.82 9.10 216.08 9.07 215.39 9.06C215.25 9.06 215.25 9.24 215.25 9.35C215.25 9.45 215.28 9.56 215.40 9.56L216.62 9.56C216.66 9.56 216.72 9.87 216.72 10.33C216.72 10.82 216.71 11.41 216.68 11.65C216.66 11.76 216.02 12.39 214.44 12.39C212.20 12.39 210.60 10.29 210.60 7.94C210.60 5.42 212.16 3.54 214.16 3.54C216.05 3.54 217.22 4.87 217.22 5.03C217.22 5.15 217.17 6.12 217.17 6.17C217.17 6.31 217.21 6.36 217.48 6.36C217.67 6.36 217.74 6.33 217.74 6.15C217.74 5.43 217.78 3.75 217.78 3.56C217.78 3.36 217.69 3.33 217.48 3.33C217.25 3.33 217.22 3.39 217.22 3.56L217.22 3.91C217.22 3.99 217.18 4.02 217.06 3.92C216.78 3.72 215.78 3.08 214.21 3.08C211.37 3.08 209.09 4.79 209.09 7.91ZM226.30 12.39C226.30 12.63 226.30 12.68 226.49 12.68C226.66 12.68 226.98 12.64 227.56 12.64C228.17 12.64 228.72 12.68 228.87 12.68C229.04 12.68 229.04 12.61 229.04 12.40C229.04 12.24 229.04 12.18 228.87 12.18L227.79 12.18C227.79 12.18 227.78 12.18 227.78 12.17C227.79 11.87 228.56 9.90 228.91 9.02C228.98 8.83 229.00 8.79 229.21 8.79L232.04 8.79C232.18 8.79 232.18 8.81 232.25 9.03C232.51 9.77 233.23 11.89 233.23 12.17C233.23 12.18 233.21 12.18 233.21 12.18L232.44 12.18C232.22 12.18 232.20 12.19 232.20 12.39C232.20 12.63 232.22 12.68 232.39 12.68C232.71 12.68 233.58 12.64 234.00 12.64C234.42 12.64 235.09 12.68 235.30 12.68C235.44 12.68 235.45 12.61 235.45 12.40C235.45 12.24 235.44 12.18 235.30 12.18L234.81 12.18C234.71 12.18 233.69 9.34 233.13 7.78L231.45 3.07C231.43 3.00 231.36 2.94 231.28 2.94C231.15 2.94 231.06 3.16 230.97 3.35C230.82 3.71 230.58 3.84 230.47 4.13L228.98 7.57C228.80 8.01 227.09 12.18 226.97 12.18L226.55 12.18C226.32 12.18 226.30 12.19 226.30 12.39ZM229.19 8.33C229.19 8.30 229.22 8.23 229.26 8.13L230.64 4.77C230.68 4.66 230.71 4.61 230.73 4.61C230.75 4.61 230.76 4.63 230.80 4.77L231.97 8.18C231.99 8.25 232.01 8.29 232.01 8.32C232.01 8.36 231.98 8.37 231.88 8.37L229.38 8.37C229.19 8.37 229.19 8.34 229.19 8.33ZM243.07 12.39C243.07 12.63 243.11 12.68 243.31 12.68C243.63 12.68 244.38 12.64 245.10 12.64C245.76 12.64 246.55 12.68 246.78 12.68C246.95 12.68 246.97 12.61 246.97 12.40C246.97 12.24 246.95 12.18 246.78 12.18L245.81 12.18C245.71 12.18 245.69 9.55 245.69 7.76L245.69 5.87C245.69 5.14 245.71 3.70 245.81 3.70L246.72 3.70C246.95 3.70 246.97 3.68 246.97 3.49C246.97 3.25 246.95 3.19 246.78 3.19C246.46 3.19 245.78 3.23 245.13 3.23C244.31 3.23 243.60 3.19 243.38 3.19C243.19 3.19 243.12 3.21 243.12 3.44C243.12 3.68 243.21 3.70 243.38 3.70L244.30 3.70C244.34 3.70 244.41 4.79 244.41 5.71L244.41 7.08C244.41 8.92 244.40 12.18 244.29 12.18L243.36 12.18C243.14 12.18 243.07 12.19 243.07 12.39ZM254.87 12.39C254.87 12.63 254.88 12.68 255.08 12.68C255.26 12.68 255.64 12.64 256.26 12.64C256.89 12.64 257.45 12.68 257.77 12.68C257.94 12.68 257.94 12.61 257.94 12.40C257.94 12.24 257.94 12.18 257.77 12.18L256.56 12.18C256.52 12.18 256.51 11.54 256.51 10.79C256.51 9.46 256.52 7.48 256.52 5.99C256.52 5.25 256.52 4.84 256.54 4.28C256.54 4.02 256.61 4.14 256.73 4.28L263.62 12.66C263.70 12.75 263.79 12.89 263.90 12.89C264.01 12.89 264.08 12.77 264.08 12.54C264.08 12.39 264.25 6.65 264.26 4.48C264.26 4.06 264.29 3.70 264.32 3.70L264.95 3.70C265.17 3.70 265.23 3.68 265.23 3.49C265.23 3.25 265.23 3.19 265.03 3.19C264.84 3.19 264.40 3.23 263.84 3.23C263.23 3.23 262.43 3.19 262.33 3.19C262.16 3.19 262.16 3.26 262.16 3.47C262.16 3.64 262.16 3.70 262.33 3.70L263.63 3.70C263.65 3.70 263.65 4.33 263.65 4.44C263.65 5.85 263.68 8.33 263.68 9.70L263.68 10.29C263.68 10.57 263.66 10.65 263.44 10.37L257.75 3.39C257.64 3.25 257.61 3.19 257.45 3.19C257.36 3.19 256.98 3.23 256.68 3.23C256.38 3.23 255.30 3.19 255.11 3.19C254.94 3.19 254.91 3.26 254.91 3.47C254.91 3.64 254.94 3.70 255.11 3.70L256.02 3.70C256.02 4.17 255.98 8.53 255.91 10.79C255.88 11.69 255.89 12.18 255.78 12.18L255.14 12.18C254.91 12.18 254.87 12.19 254.87 12.39Z"></path></g></svg>